o pinkHead.obj
v 0.500000 1.866025 0.000000
v 0.866025 1.500000 0.000000
v 1.000000 1.000000 0.000000
v 0.866025 0.500000 0.000000
v 0.500000 0.133975 0.000000
v 0.433013 1.866025 0.250000
v 0.750000 1.500000 0.433013
v 0.866025 1.000000 0.500000
v 0.750000 0.500000 0.433013
v 0.433013 0.133975 0.250000
v 0.250000 1.866025 0.433013
v 0.433013 1.500000 0.750000
v 0.500000 1.000000 0.866025
v 0.433013 0.500000 0.750000
v 0.250000 0.133975 0.433013
v -0.000000 1.866025 0.500000
v -0.000000 1.500000 0.866025
v -0.000000 1.000000 1.000000
v -0.000000 0.500000 0.866025
v -0.000000 0.133975 0.500000
v -0.250000 1.866025 0.433013
v -0.433013 1.500000 0.750000
v -0.500000 1.000000 0.866025
v -0.433013 0.500000 0.750000
v -0.250000 0.133975 0.433013
v -0.433013 1.866025 0.250000
v -0.750000 1.500000 0.433013
v -0.866025 1.000000 0.500000
v -0.750000 0.500000 0.433013
v -0.433013 0.133975 0.250000
v -0.500000 1.866025 -0.000000
v -0.866025 1.500000 -0.000000
v -1.000000 1.000000 -0.000000
v -0.866025 0.500000 -0.000000
v -0.500000 0.133975 -0.000000
v -0.433013 1.866025 -0.250000
v -0.750000 1.500000 -0.433013
v -0.866025 1.000000 -0.500000
v -0.750000 0.500000 -0.433013
v -0.433013 0.133975 -0.250000
v -0.250000 1.866025 -0.433013
v -0.500000 1.000000 -0.866025
v -0.433013 0.500000 -0.750000
v -0.250000 0.133975 -0.433013
v 0.041107 2.454536 -0.481810
v 0.000000 1.500000 -0.866025
v 0.000000 1.000000 -1.000000
v 0.000000 0.500000 -0.866025
v 0.000000 0.133975 -0.500000
v 0.301186 2.454536 -0.412122
v 0.433013 1.500000 -0.750000
v 0.500000 1.000000 -0.866025
v 0.433013 0.500000 -0.750000
v 0.250000 0.133975 -0.433013
v 0.433013 1.866025 -0.250000
v 0.866025 1.000000 -0.500000
v 0.750000 0.500000 -0.433013
v 0.433013 0.133975 -0.250000
v 0.000000 0.000000 0.000000
v 0.041107 1.824362 -0.785026
v 0.452794 1.824362 -0.674714
v -0.549092 1.500659 -0.664579
v -0.408752 1.594218 -0.677114
v -0.472655 1.372853 -0.787796
v -0.327727 1.500659 -0.792384
v 0.681241 1.500659 -0.522032
v 0.693775 1.594218 -0.381692
v 0.804458 1.372853 -0.445595
v 0.809046 1.500659 -0.300667
v 0.479647 2.028500 0.021662
v 0.418638 2.026928 0.249876
v 0.251421 2.027046 0.417082
v 0.023265 2.028811 0.478046
v -0.204135 2.031594 0.416632
v -0.369793 2.034531 0.249870
v -0.429767 2.036864 0.022777
v -0.368455 2.038098 -0.203985
v -0.096082 2.454536 -0.445050
v -0.233913 2.001634 -0.422181
v -0.188580 1.818906 -0.728937
v 0.623664 1.818906 -0.511297
v 0.380395 2.454536 -0.311694
v 0.463931 2.004112 -0.235076
v 0.336711 2.412215 0.022085
v 0.293250 2.480607 0.183922
v 0.186682 2.480607 0.290490
v 0.041107 2.480607 0.329497
v -0.104468 2.480607 0.290490
v -0.211036 2.480607 0.183922
v -0.250042 2.480607 0.038347
v -0.225140 2.412213 -0.134148
v -0.344461 1.768155 -0.579286
v 0.631827 1.759606 -0.334217
v -0.525485 1.032322 -1.037283
v -0.869011 1.027528 -0.695512
v -0.776927 1.424353 -0.642347
v -0.596748 1.424353 -0.822527
v -0.485387 1.331616 -0.967832
v 0.013823 1.032322 -1.181790
v -0.303869 1.424353 -0.991620
v 0.013823 1.429147 -1.075461
v 0.553131 1.032322 -1.037283
v 0.499966 1.429147 -0.945199
v 0.947931 1.032322 -0.642482
v 0.733175 1.424353 -0.713745
v 0.878480 1.331616 -0.602385
v 1.074548 1.027528 -0.174737
v 0.902268 1.424353 -0.420866
v 0.968219 1.424353 -0.174737
v -0.225271 0.120628 -0.656594
v -0.380408 0.125681 -0.508359
v -0.596915 0.375682 -0.633359
v -0.350271 0.370628 -0.873100
v 0.018389 0.120628 -0.721882
v 0.018389 0.370628 -0.971883
v 0.262050 0.120628 -0.656594
v 0.387050 0.370628 -0.873100
v 0.440421 0.120628 -0.478222
v 0.656928 0.370628 -0.603222
v 0.500657 0.125681 -0.272279
v 0.750657 0.375681 -0.272279
vn 0.929526 0.368629 0.009666
vn 0.793617 0.594378 0.129949
vn 0.960414 -0.238147 0.144536
vn 0.883945 -0.467528 -0.007685
vn 0.371467 -0.926754 0.056030
vn 0.785453 0.421061 0.453620
vn 0.749141 0.501714 0.432517
vn 0.866025 -0.000000 0.500000
vn 0.749141 -0.501714 0.432517
vn 0.431481 -0.867044 0.249116
vn 0.453292 0.422629 0.784800
vn 0.432517 0.501714 0.749141
vn 0.500000 -0.000000 0.866025
vn 0.432517 -0.501714 0.749141
vn 0.249116 -0.867044 0.431481
vn 0.000657 0.446210 0.894928
vn -0.000000 0.501714 0.865033
vn -0.000000 -0.000000 1.000000
vn -0.000000 -0.501714 0.865033
vn -0.000000 -0.867044 0.498231
vn -0.436367 0.483916 0.758557
vn -0.432517 0.501714 0.749141
vn -0.500000 -0.000000 0.866025
vn -0.432517 -0.501714 0.749141
vn -0.249116 -0.867044 0.431481
vn -0.736767 0.523893 0.427447
vn -0.749141 0.501714 0.432517
vn -0.866025 -0.000000 0.500000
vn -0.749141 -0.501714 0.432517
vn -0.431481 -0.867044 0.249116
vn -0.831603 0.555369 0.001485
vn -0.865033 0.501714 -0.000000
vn -1.000000 0.000000 -0.000000
vn -0.865033 -0.501714 -0.000000
vn -0.498231 -0.867044 -0.000000
vn -0.712416 0.575254 -0.401929
vn -0.758398 0.598717 -0.257625
vn -0.913863 -0.252294 -0.318122
vn -0.824700 -0.368747 -0.428830
vn -0.386985 -0.915216 -0.112349
vn -0.833678 0.487807 -0.258893
vn -0.336316 -0.740929 -0.581305
vn -0.509106 0.087830 -0.856211
vn -0.051093 -0.994842 -0.087623
vn 0.001345 0.720398 -0.693560
vn 0.016381 0.685129 -0.728237
vn -0.000556 -0.743468 -0.668772
vn -0.002096 0.212978 -0.977055
vn 0.000181 -0.994938 -0.100492
vn 0.336842 0.721121 -0.605410
vn 0.373309 0.643083 -0.668643
vn 0.337288 -0.740911 -0.580765
vn 0.504001 0.148069 -0.850916
vn 0.047201 -0.995326 -0.084256
vn 0.949300 0.182164 0.256214
vn 0.599139 -0.724955 -0.339813
vn 0.861272 -0.114959 -0.494970
vn 0.051101 -0.997951 -0.038495
vn -0.000000 -1.000000 -0.000000
vn 0.013888 0.343177 -0.939168
vn 0.465237 0.305466 -0.830810
vn -0.169218 0.835911 -0.522128
vn -0.744662 0.555060 -0.370657
vn -0.133457 0.819478 -0.557355
vn -0.435468 0.651965 -0.620733
vn 0.706614 0.596878 -0.380044
vn 0.867607 0.497115 -0.011562
vn 0.474748 0.787782 -0.392445
vn 0.474451 0.793558 -0.381001
vn 0.987316 0.137571 0.079258
vn 0.864445 0.188302 0.466130
vn 0.491030 0.191409 0.849854
vn 0.001026 0.224217 0.974539
vn -0.478849 0.276807 0.833115
vn -0.815457 0.332986 0.473445
vn -0.923664 0.383105 -0.008608
vn -0.845434 0.371756 -0.383457
vn -0.680358 0.650786 -0.337032
vn -0.952902 0.293150 -0.077725
vn -0.614675 0.463618 -0.638149
vn 0.807328 0.402787 -0.431260
vn 0.718058 0.687015 -0.111366
vn 0.938272 0.164455 0.304303
vn 0.749440 0.652688 0.111076
vn 0.678268 0.656257 0.330573
vn 0.380382 0.654390 0.653516
vn -0.002241 0.662182 0.749340
vn -0.375383 0.673034 0.637269
vn -0.636431 0.683632 0.357215
vn -0.715158 0.698512 -0.025080
vn -0.711226 0.654566 -0.256320
vn -0.937501 0.339878 0.074666
vn 0.881836 0.347759 0.318480
vn -0.418971 -0.547763 -0.724168
vn -0.888316 -0.252761 -0.383415
vn -0.774993 0.516070 -0.364771
vn -0.141189 0.819284 -0.555733
vn -0.276970 0.622362 -0.732089
vn -0.000694 -0.550983 -0.834516
vn -0.357345 0.712990 -0.603283
vn 0.003853 0.689830 -0.723961
vn 0.420179 -0.547730 -0.723492
vn 0.368118 0.676857 -0.637459
vn 0.738965 -0.527513 -0.419118
vn 0.616390 0.718470 -0.322280
vn 0.647064 0.613471 -0.452727
vn 0.973649 -0.223883 0.043417
vn 0.496112 0.767267 -0.406416
vn 0.861639 0.506818 0.026723
vn -0.176390 -0.936016 -0.304565
vn -0.435920 -0.873262 -0.217688
vn -0.736290 -0.446830 -0.508154
vn -0.504293 -0.181278 -0.844291
vn 0.000197 -0.936351 -0.351065
vn -0.002497 -0.051666 -0.998661
vn 0.172491 -0.937736 -0.301493
vn 0.507487 -0.119385 -0.853349
vn 0.269413 -0.948704 -0.165460
vn 0.802066 -0.380151 -0.460625
vn 0.452752 -0.890656 -0.041799
vn 0.796130 -0.588632 -0.140318
vt 0.871287 0.285637
vt 0.928725 0.500000
vt 0.747525 0.500000
vt 0.714363 0.376238
vt 0.928725 0.252475
vt 0.995049 0.500000
vt 0.871287 0.285637
vt 0.928725 0.500000
vt 0.714363 0.376238
vt 0.747525 0.500000
vt 0.500000 0.500000
vt 0.714363 0.128713
vt 0.623762 0.285637
vt 0.747525 0.071275
vt 0.714363 0.128713
vt 0.623762 0.285637
vt 0.500000 0.071275
vt 0.500000 0.252475
vt 0.500000 0.004950
vt 0.500000 0.071275
vt 0.500000 0.252475
vt 0.285637 0.128713
vt 0.376238 0.285637
vt 0.252475 0.071275
vt 0.285637 0.128713
vt 0.376238 0.285637
vt 0.128713 0.285637
vt 0.285637 0.376238
vt 0.071275 0.252475
vt 0.128713 0.285637
vt 0.285637 0.376238
vt 0.071275 0.500000
vt 0.252475 0.500000
vt 0.004950 0.500000
vt 0.071275 0.500000
vt 0.252475 0.500000
vt 0.128713 0.714363
vt 0.285637 0.623762
vt 0.071275 0.747525
vt 0.128713 0.714363
vt 0.285637 0.623762
vt 0.307048 0.834202
vt 0.241102 0.826752
vt 0.372752 0.720400
vt 0.252475 0.928725
vt 0.071275 0.747525
vt 0.128713 0.714363
vt 0.241102 0.826752
vt 0.277487 0.885404
vt 0.285637 0.871287
vt 0.252475 0.928725
vt 0.376238 0.714363
vt 0.285637 0.623762
vt 0.128713 0.714363
vt 0.285637 0.871287
vt 0.376238 0.714363
vt 0.500000 0.928725
vt 0.387146 0.898486
vt 0.432594 0.727516
vt 0.500000 0.747525
vt 0.500000 0.995049
vt 0.346474 0.887588
vt 0.500000 0.928725
vt 0.500000 0.928725
vt 0.500000 0.995049
vt 0.500000 0.747525
vt 0.500000 0.928725
vt 0.500000 0.747525
vt 0.714363 0.871287
vt 0.623762 0.714363
vt 0.747525 0.928725
vt 0.714363 0.871287
vt 0.714363 0.871287
vt 0.747525 0.928725
vt 0.623762 0.714363
vt 0.714363 0.871287
vt 0.623762 0.714363
vt 0.797543 0.788107
vt 0.672471 0.662994
vt 0.928725 0.747525
vt 0.826752 0.758898
vt 0.885404 0.722513
vt 0.871287 0.714363
vt 0.928725 0.747525
vt 0.714363 0.623762
vt 0.871287 0.714363
vt 0.714363 0.623762
vt 0.887588 0.653526
vt 0.834202 0.692952
vt 0.720400 0.627248
vt 0.995049 0.500000
vt 0.887588 0.653526
vt 0.928725 0.500000
vt 0.747525 0.500000
vt 0.928725 0.500000
vt 0.782602 0.518840
vt 0.795682 0.415436
vt 0.718699 0.325539
vt 0.610860 0.290478
vt 0.501503 0.319516
vt 0.420014 0.404484
vt 0.387953 0.522427
vt 0.385612 0.615254
vt 0.345639 0.748816
vt 0.500000 0.928725
vt 0.346474 0.887588
vt 0.310329 0.816169
vt 0.714363 0.871287
vt 0.826752 0.758898
vt 0.822577 0.683814
vt 0.747175 0.639179
vt 0.378391 0.561158
vt 0.369009 0.471215
vt 0.389258 0.395364
vt 0.440944 0.340855
vt 0.510218 0.322293
vt 0.578518 0.344652
vt 0.627543 0.401941
vt 0.655854 0.486812
vt 0.277487 0.885404
vt 0.885404 0.722513
g Sphere
f 7/1/7 2/2/2 1/3/1 6/4/6 
f 8/5/8 3/6/3 2/2/2 7/1/7 
f 9/7/9 4/8/4 3/6/3 8/5/8 
f 10/9/10 5/10/5 4/8/4 9/7/9 
f 5/10/5 10/9/10 59/11/59 
f 12/12/12 7/1/7 6/4/6 11/13/11 
f 13/14/13 8/5/8 7/1/7 12/12/12 
f 14/15/14 9/7/9 8/5/8 13/14/13 
f 15/16/15 10/9/10 9/7/9 14/15/14 
f 10/9/10 15/16/15 59/11/59 
f 17/17/17 12/12/12 11/13/11 16/18/16 
f 18/19/18 13/14/13 12/12/12 17/17/17 
f 19/20/19 14/15/14 13/14/13 18/19/18 
f 20/21/20 15/16/15 14/15/14 19/20/19 
f 15/16/15 20/21/20 59/11/59 
f 22/22/22 17/17/17 16/18/16 21/23/21 
f 23/24/23 18/19/18 17/17/17 22/22/22 
f 24/25/24 19/20/19 18/19/18 23/24/23 
f 25/26/25 20/21/20 19/20/19 24/25/24 
f 20/21/20 25/26/25 59/11/59 
f 27/27/27 22/22/22 21/23/21 26/28/26 
f 28/29/28 23/24/23 22/22/22 27/27/27 
f 29/30/29 24/25/24 23/24/23 28/29/28 
f 30/31/30 25/26/25 24/25/24 29/30/29 
f 25/26/25 30/31/30 59/11/59 
f 32/32/32 27/27/27 26/28/26 31/33/31 
f 33/34/33 28/29/28 27/27/27 32/32/32 
f 34/35/34 29/30/29 28/29/28 33/34/33 
f 35/36/35 30/31/30 29/30/29 34/35/34 
f 30/31/30 35/36/35 59/11/59 
f 37/37/37 32/32/32 31/33/31 36/38/36 
f 38/39/38 33/34/33 32/32/32 37/37/37 
f 39/40/39 34/35/34 33/34/33 38/39/38 
f 40/41/40 35/36/35 34/35/34 39/40/39 
f 35/36/35 40/41/40 59/11/59 
f 63/42/63 62/43/62 37/37/37 36/38/36 41/44/41 
f 94/45/94 95/46/95 96/47/96 97/48/97 98/49/98 
f 43/50/43 39/40/39 38/39/38 42/51/42 
f 110/52/110 111/53/111 112/54/112 113/55/113 
f 40/41/40 44/56/44 59/11/59 
f 60/57/60 80/58/80 78/59/78 45/60/45 
f 99/61/99 94/45/94 98/49/98 100/62/100 101/63/101 
f 48/64/48 43/50/43 42/51/42 47/65/47 
f 114/66/114 110/52/110 113/55/113 115/67/115 
f 44/56/44 49/68/49 59/11/59 
f 61/69/61 60/57/60 45/60/45 50/70/50 
f 102/71/102 99/61/99 101/63/101 103/72/103 
f 53/73/53 48/64/48 47/65/47 52/74/52 
f 116/75/116 114/66/114 115/67/115 117/76/117 
f 49/68/49 54/77/54 59/11/59 
f 81/78/81 61/69/61 50/70/50 82/79/82 
f 104/80/104 102/71/102 103/72/103 105/81/105 106/82/106 
f 57/83/57 53/73/53 52/74/52 56/84/56 
f 118/85/118 116/75/116 117/76/117 119/86/119 
f 54/77/54 58/87/58 59/11/59 
f 2/2/2 69/88/69 67/89/67 55/90/55 1/3/1 
f 107/91/107 104/80/104 106/82/106 108/92/108 109/93/109 
f 4/8/4 57/83/57 56/84/56 3/6/3 
f 120/94/120 118/85/118 119/86/119 121/95/121 
f 58/87/58 5/10/5 59/11/59 
f 6/4/6 1/3/1 70/96/70 71/97/71 
f 11/13/11 6/4/6 71/97/71 72/98/72 
f 16/18/16 11/13/11 72/98/72 73/99/73 
f 21/23/21 16/18/16 73/99/73 74/100/74 
f 26/28/26 21/23/21 74/100/74 75/101/75 
f 31/33/31 26/28/26 75/101/75 76/102/76 
f 36/38/36 31/33/31 76/102/76 77/103/77 
f 41/44/41 36/38/36 77/103/77 79/104/79 
f 46/105/46 65/106/65 80/58/80 60/57/60 
f 63/42/63 41/44/41 79/104/79 92/107/92 
f 51/108/51 46/105/46 60/57/60 61/69/61 
f 66/109/66 51/108/51 61/69/61 81/78/81 
f 55/90/55 67/89/67 93/110/93 83/111/83 
f 1/3/1 55/90/55 83/111/83 70/96/70 
f 82/79/82 50/70/50 45/60/45 78/59/78 91/112/91 90/113/90 89/114/89 88/115/88 87/116/87 86/117/86 85/118/85 84/119/84 
f 62/43/62 63/42/63 65/106/65 64/120/64 
f 67/89/67 69/88/69 68/121/68 66/109/66 
f 84/119/84 85/118/85 71/97/71 70/96/70 
f 85/118/85 86/117/86 72/98/72 71/97/71 
f 86/117/86 87/116/87 73/99/73 72/98/72 
f 87/116/87 88/115/88 74/100/74 73/99/73 
f 88/115/88 89/114/89 75/101/75 74/100/74 
f 89/114/89 90/113/90 76/102/76 75/101/75 
f 90/113/90 91/112/91 77/103/77 76/102/76 
f 91/112/91 78/59/78 79/104/79 77/103/77 
f 92/107/92 79/104/79 78/59/78 80/58/80 
f 83/111/83 93/110/93 81/78/81 82/79/82 
f 82/79/82 84/119/84 70/96/70 83/111/83 
f 63/42/63 92/107/92 80/58/80 65/106/65 
f 93/110/93 67/89/67 66/109/66 81/78/81 
f 42/51/42 38/39/38 95/46/95 94/45/94 
f 38/39/38 37/37/37 96/47/96 95/46/95 
f 37/37/37 62/43/62 97/48/97 96/47/96 
f 62/43/62 64/120/64 98/49/98 97/48/97 
f 47/65/47 42/51/42 94/45/94 99/61/99 
f 64/120/64 65/106/65 100/62/100 98/49/98 
f 65/106/65 46/105/46 101/63/101 100/62/100 
f 52/74/52 47/65/47 99/61/99 102/71/102 
f 46/105/46 51/108/51 103/72/103 101/63/101 
f 56/84/56 52/74/52 102/71/102 104/80/104 
f 51/108/51 66/109/66 105/81/105 103/72/103 
f 66/109/66 68/121/68 106/82/106 105/81/105 
f 3/6/3 56/84/56 104/80/104 107/91/107 
f 68/121/68 69/88/69 108/92/108 106/82/106 
f 69/88/69 2/2/2 109/93/109 108/92/108 
f 2/2/2 3/6/3 107/91/107 109/93/109 
f 44/56/44 40/41/40 111/53/111 110/52/110 
f 40/41/40 39/40/39 112/54/112 111/53/111 
f 39/40/39 43/50/43 113/55/113 112/54/112 
f 49/68/49 44/56/44 110/52/110 114/66/114 
f 43/50/43 48/64/48 115/67/115 113/55/113 
f 54/77/54 49/68/49 114/66/114 116/75/116 
f 48/64/48 53/73/53 117/76/117 115/67/115 
f 58/87/58 54/77/54 116/75/116 118/85/118 
f 53/73/53 57/83/57 119/86/119 117/76/117 
f 5/10/5 58/87/58 118/85/118 120/94/120 
f 57/83/57 4/8/4 121/95/121 119/86/119 
f 4/8/4 5/10/5 120/94/120 121/95/121 
